
<svg version="1.0" xmlns="http://www.w3.org/2000/svg"
 width="200.000000pt" height="200.000000pt" viewBox="0 0 200.000000 200.000000"
 preserveAspectRatio="xMidYMid meet">

<g transform="translate(0.000000,200.000000) scale(0.100000,-0.100000)"
fill="#000000" stroke="none">
<path d="M795 1960 c-3 -5 -16 -10 -28 -10 -21 0 -110 -30 -189 -63 -114 -48
-291 -197 -375 -315 -94 -131 -161 -300 -179 -447 -13 -109 -3 -319 17 -340 5
-5 9 -18 9 -30 0 -44 75 -215 133 -300 129 -192 325 -334 547 -398 47 -13 99
-25 115 -26 17 0 32 -6 33 -11 5 -13 239 -13 244 0 2 5 23 11 48 14 25 2 87
18 138 36 186 63 327 159 450 309 82 99 133 193 172 316 17 55 36 114 41 130
17 51 24 252 10 269 -7 8 -10 19 -7 24 3 6 -3 47 -15 92 -52 210 -126 345
-266 481 -109 107 -201 168 -333 219 -30 12 -65 26 -78 31 -13 5 -34 9 -47 9
-13 0 -27 5 -30 10 -4 6 -83 10 -205 10 -122 0 -201 -4 -205 -10z m363 -354
c169 -46 323 -171 398 -326 51 -103 67 -177 66 -295 -2 -226 -139 -441 -344
-542 -111 -55 -164 -68 -283 -68 -83 0 -114 5 -184 29 -169 57 -301 172 -373
326 -51 111 -53 119 -53 270 0 135 2 150 28 217 59 151 172 275 312 343 141
69 289 84 433 46z"/>
</g>
</svg>
