
<svg version="1.0" xmlns="http://www.w3.org/2000/svg"
 width="200.000000pt" height="200.000000pt" viewBox="0 0 200.000000 200.000000"
 preserveAspectRatio="xMidYMid meet">

<g transform="translate(0.000000,200.000000) scale(0.100000,-0.100000)"
fill="#000000" stroke="none">
<path d="M1615 1981 c-22 -4 -57 -18 -78 -32 -23 -14 -136 -147 -289 -337
-138 -172 -254 -312 -258 -310 -7 3 -141 163 -365 438 -133 164 -150 182 -191
206 -56 33 -128 40 -174 17 -48 -25 -91 -89 -95 -143 -6 -88 13 -119 305 -475
151 -184 276 -340 278 -345 2 -5 -120 -164 -270 -352 -151 -189 -280 -358
-288 -377 -7 -18 -13 -62 -12 -97 1 -98 47 -150 142 -161 55 -6 119 14 158 50
13 12 134 160 269 329 135 169 249 305 253 303 4 -3 68 -78 141 -167 421 -514
372 -459 439 -489 60 -28 146 -22 188 13 60 48 77 161 36 239 -8 17 -139 181
-290 365 -151 183 -274 338 -274 344 0 5 125 167 278 358 153 192 284 363 290
382 25 71 9 153 -39 197 -19 18 -107 58 -113 52 0 -1 -19 -5 -41 -8z"/>
</g>
</svg>
